<mxfile host="app.diagrams.net" modified="2023-11-30T21:46:49.301Z" agent="Mozilla/5.0 (Windows NT 10.0; Win64; x64) AppleWebKit/537.36 (KHTML, like Gecko) Chrome/119.0.0.0 Safari/537.36" etag="XyPZ5IplS_2kycI2WNLc" version="22.1.5" type="github">
  <diagram name="Page-1" id="JbzRH35_Jp3MEoYcQfOq">
    <mxGraphModel dx="4075" dy="2755" grid="1" gridSize="10" guides="1" tooltips="1" connect="1" arrows="1" fold="1" page="1" pageScale="1" pageWidth="850" pageHeight="1100" math="0" shadow="0">
      <root>
        <mxCell id="0" />
        <mxCell id="1" parent="0" />
        <mxCell id="ab_D_kLyQdRW7rkLjhHX-5" value="" style="whiteSpace=wrap;html=1;aspect=fixed;fillColor=#00CC00;" vertex="1" parent="1">
          <mxGeometry x="-170" y="144" width="410" height="410" as="geometry" />
        </mxCell>
        <mxCell id="ab_D_kLyQdRW7rkLjhHX-2" value="" style="image;points=[];aspect=fixed;html=1;align=center;shadow=0;dashed=0;image=img/lib/allied_telesis/computer_and_terminals/Personal_Computer.svg;" vertex="1" parent="1">
          <mxGeometry x="-75.83" y="384" width="51.65" height="70" as="geometry" />
        </mxCell>
        <mxCell id="ab_D_kLyQdRW7rkLjhHX-3" value="" style="image;points=[];aspect=fixed;html=1;align=center;shadow=0;dashed=0;image=img/lib/allied_telesis/computer_and_terminals/Personal_Computer.svg;" vertex="1" parent="1">
          <mxGeometry x="90" y="215" width="51.65" height="70" as="geometry" />
        </mxCell>
        <mxCell id="ab_D_kLyQdRW7rkLjhHX-36" style="edgeStyle=orthogonalEdgeStyle;rounded=0;orthogonalLoop=1;jettySize=auto;html=1;entryX=0;entryY=0.5;entryDx=0;entryDy=0;" edge="1" parent="1" source="ab_D_kLyQdRW7rkLjhHX-4" target="ab_D_kLyQdRW7rkLjhHX-8">
          <mxGeometry relative="1" as="geometry" />
        </mxCell>
        <mxCell id="ab_D_kLyQdRW7rkLjhHX-67" style="edgeStyle=orthogonalEdgeStyle;curved=1;rounded=0;orthogonalLoop=1;jettySize=auto;html=1;" edge="1" parent="1" source="ab_D_kLyQdRW7rkLjhHX-4" target="ab_D_kLyQdRW7rkLjhHX-64">
          <mxGeometry relative="1" as="geometry" />
        </mxCell>
        <mxCell id="ab_D_kLyQdRW7rkLjhHX-4" value="" style="image;aspect=fixed;html=1;points=[];align=center;fontSize=12;image=img/lib/azure2/networking/Virtual_Router.svg;" vertex="1" parent="1">
          <mxGeometry x="330" y="326" width="58" height="58" as="geometry" />
        </mxCell>
        <mxCell id="ab_D_kLyQdRW7rkLjhHX-7" value="" style="fontColor=#0066CC;verticalAlign=top;verticalLabelPosition=bottom;labelPosition=center;align=center;html=1;outlineConnect=0;fillColor=#CCCCCC;strokeColor=#6881B3;gradientColor=none;gradientDirection=north;strokeWidth=2;shape=mxgraph.networks.monitor;" vertex="1" parent="1">
          <mxGeometry x="-90" y="215" width="80" height="65" as="geometry" />
        </mxCell>
        <mxCell id="ab_D_kLyQdRW7rkLjhHX-8" value="" style="whiteSpace=wrap;html=1;aspect=fixed;fillColor=#CDA2BE;" vertex="1" parent="1">
          <mxGeometry x="500" y="230" width="250" height="250" as="geometry" />
        </mxCell>
        <mxCell id="ab_D_kLyQdRW7rkLjhHX-9" value="" style="image;points=[];aspect=fixed;html=1;align=center;shadow=0;dashed=0;image=img/lib/allied_telesis/computer_and_terminals/Personal_Computer.svg;" vertex="1" parent="1">
          <mxGeometry x="524.18" y="274" width="51.65" height="70" as="geometry" />
        </mxCell>
        <mxCell id="ab_D_kLyQdRW7rkLjhHX-10" value="" style="image;points=[];aspect=fixed;html=1;align=center;shadow=0;dashed=0;image=img/lib/allied_telesis/computer_and_terminals/Personal_Computer.svg;" vertex="1" parent="1">
          <mxGeometry x="670" y="273" width="51.65" height="70" as="geometry" />
        </mxCell>
        <mxCell id="ab_D_kLyQdRW7rkLjhHX-45" style="edgeStyle=orthogonalEdgeStyle;rounded=0;orthogonalLoop=1;jettySize=auto;html=1;" edge="1" parent="1" source="ab_D_kLyQdRW7rkLjhHX-11">
          <mxGeometry relative="1" as="geometry">
            <mxPoint x="760" y="346" as="targetPoint" />
          </mxGeometry>
        </mxCell>
        <mxCell id="ab_D_kLyQdRW7rkLjhHX-46" style="edgeStyle=orthogonalEdgeStyle;rounded=0;orthogonalLoop=1;jettySize=auto;html=1;" edge="1" parent="1" source="ab_D_kLyQdRW7rkLjhHX-11">
          <mxGeometry relative="1" as="geometry">
            <mxPoint x="1010" y="346" as="targetPoint" />
          </mxGeometry>
        </mxCell>
        <mxCell id="ab_D_kLyQdRW7rkLjhHX-69" style="edgeStyle=orthogonalEdgeStyle;curved=1;rounded=0;orthogonalLoop=1;jettySize=auto;html=1;" edge="1" parent="1" source="ab_D_kLyQdRW7rkLjhHX-11" target="ab_D_kLyQdRW7rkLjhHX-68">
          <mxGeometry relative="1" as="geometry" />
        </mxCell>
        <mxCell id="ab_D_kLyQdRW7rkLjhHX-11" value="" style="image;aspect=fixed;html=1;points=[];align=center;fontSize=12;image=img/lib/azure2/networking/Virtual_Router.svg;" vertex="1" parent="1">
          <mxGeometry x="850" y="317" width="58" height="58" as="geometry" />
        </mxCell>
        <mxCell id="ab_D_kLyQdRW7rkLjhHX-12" value="" style="whiteSpace=wrap;html=1;aspect=fixed;fillColor=#FF6666;" vertex="1" parent="1">
          <mxGeometry x="1025" y="221" width="250" height="250" as="geometry" />
        </mxCell>
        <mxCell id="ab_D_kLyQdRW7rkLjhHX-13" value="" style="image;points=[];aspect=fixed;html=1;align=center;shadow=0;dashed=0;image=img/lib/allied_telesis/computer_and_terminals/Personal_Computer.svg;" vertex="1" parent="1">
          <mxGeometry x="1124.18" y="278" width="51.65" height="70" as="geometry" />
        </mxCell>
        <mxCell id="ab_D_kLyQdRW7rkLjhHX-41" style="edgeStyle=orthogonalEdgeStyle;rounded=0;orthogonalLoop=1;jettySize=auto;html=1;" edge="1" parent="1" source="ab_D_kLyQdRW7rkLjhHX-14">
          <mxGeometry relative="1" as="geometry">
            <mxPoint x="626.6449999999995" y="-40" as="targetPoint" />
          </mxGeometry>
        </mxCell>
        <mxCell id="ab_D_kLyQdRW7rkLjhHX-14" value="" style="image;points=[];aspect=fixed;html=1;align=center;shadow=0;dashed=0;image=img/lib/allied_telesis/computer_and_terminals/Personal_Computer.svg;" vertex="1" parent="1">
          <mxGeometry x="600.8199999999999" y="40" width="51.65" height="70" as="geometry" />
        </mxCell>
        <mxCell id="ab_D_kLyQdRW7rkLjhHX-15" value="" style="whiteSpace=wrap;html=1;aspect=fixed;fillColor=#FFB366;" vertex="1" parent="1">
          <mxGeometry x="460" y="-382.24" width="340" height="340" as="geometry" />
        </mxCell>
        <mxCell id="ab_D_kLyQdRW7rkLjhHX-16" value="" style="image;points=[];aspect=fixed;html=1;align=center;shadow=0;dashed=0;image=img/lib/allied_telesis/computer_and_terminals/Personal_Computer.svg;" vertex="1" parent="1">
          <mxGeometry x="604.1800000000001" y="-310" width="51.65" height="70" as="geometry" />
        </mxCell>
        <mxCell id="ab_D_kLyQdRW7rkLjhHX-17" value="" style="whiteSpace=wrap;html=1;aspect=fixed;fillColor=#C3ABD0;" vertex="1" parent="1">
          <mxGeometry x="1740" y="224" width="250" height="250" as="geometry" />
        </mxCell>
        <mxCell id="ab_D_kLyQdRW7rkLjhHX-18" value="" style="image;points=[];aspect=fixed;html=1;align=center;shadow=0;dashed=0;image=img/lib/allied_telesis/computer_and_terminals/Personal_Computer.svg;" vertex="1" parent="1">
          <mxGeometry x="1759.17" y="263" width="51.65" height="70" as="geometry" />
        </mxCell>
        <mxCell id="ab_D_kLyQdRW7rkLjhHX-19" value="" style="image;points=[];aspect=fixed;html=1;align=center;shadow=0;dashed=0;image=img/lib/allied_telesis/computer_and_terminals/Personal_Computer.svg;" vertex="1" parent="1">
          <mxGeometry x="1919.17" y="263" width="51.65" height="70" as="geometry" />
        </mxCell>
        <mxCell id="ab_D_kLyQdRW7rkLjhHX-51" style="edgeStyle=orthogonalEdgeStyle;rounded=0;orthogonalLoop=1;jettySize=auto;html=1;" edge="1" parent="1" source="ab_D_kLyQdRW7rkLjhHX-20">
          <mxGeometry relative="1" as="geometry">
            <mxPoint x="1469" y="540" as="targetPoint" />
          </mxGeometry>
        </mxCell>
        <mxCell id="ab_D_kLyQdRW7rkLjhHX-52" style="edgeStyle=orthogonalEdgeStyle;rounded=0;orthogonalLoop=1;jettySize=auto;html=1;" edge="1" parent="1" source="ab_D_kLyQdRW7rkLjhHX-20">
          <mxGeometry relative="1" as="geometry">
            <mxPoint x="1300" y="362" as="targetPoint" />
          </mxGeometry>
        </mxCell>
        <mxCell id="ab_D_kLyQdRW7rkLjhHX-53" style="edgeStyle=orthogonalEdgeStyle;rounded=0;orthogonalLoop=1;jettySize=auto;html=1;" edge="1" parent="1" source="ab_D_kLyQdRW7rkLjhHX-20">
          <mxGeometry relative="1" as="geometry">
            <mxPoint x="1680" y="362" as="targetPoint" />
          </mxGeometry>
        </mxCell>
        <mxCell id="ab_D_kLyQdRW7rkLjhHX-71" style="edgeStyle=orthogonalEdgeStyle;curved=1;rounded=0;orthogonalLoop=1;jettySize=auto;html=1;" edge="1" parent="1" source="ab_D_kLyQdRW7rkLjhHX-20" target="ab_D_kLyQdRW7rkLjhHX-70">
          <mxGeometry relative="1" as="geometry" />
        </mxCell>
        <mxCell id="ab_D_kLyQdRW7rkLjhHX-20" value="" style="image;aspect=fixed;html=1;points=[];align=center;fontSize=12;image=img/lib/azure2/networking/Virtual_Router.svg;" vertex="1" parent="1">
          <mxGeometry x="1440" y="333" width="58" height="58" as="geometry" />
        </mxCell>
        <mxCell id="ab_D_kLyQdRW7rkLjhHX-23" value="" style="whiteSpace=wrap;html=1;aspect=fixed;fillColor=#00CCCC;" vertex="1" parent="1">
          <mxGeometry x="1344" y="580" width="250" height="250" as="geometry" />
        </mxCell>
        <mxCell id="ab_D_kLyQdRW7rkLjhHX-25" value="" style="image;points=[];aspect=fixed;html=1;align=center;shadow=0;dashed=0;image=img/lib/allied_telesis/computer_and_terminals/Personal_Computer.svg;" vertex="1" parent="1">
          <mxGeometry x="1440" y="630" width="51.65" height="70" as="geometry" />
        </mxCell>
        <mxCell id="ab_D_kLyQdRW7rkLjhHX-26" value="&lt;b&gt;Attack Platform&lt;/b&gt;&lt;br&gt;IP: 192.168.1.2" style="text;html=1;strokeColor=none;fillColor=#FFFFFF;align=center;verticalAlign=middle;whiteSpace=wrap;rounded=0;" vertex="1" parent="1">
          <mxGeometry x="-100" y="291" width="110" height="84" as="geometry" />
        </mxCell>
        <mxCell id="ab_D_kLyQdRW7rkLjhHX-27" value="&lt;b&gt;training1&lt;/b&gt;&lt;br&gt;IP: 192.168.1.3" style="text;html=1;strokeColor=none;fillColor=#FFFFFF;align=center;verticalAlign=middle;whiteSpace=wrap;rounded=0;" vertex="1" parent="1">
          <mxGeometry x="50" y="291" width="110" height="84" as="geometry" />
        </mxCell>
        <mxCell id="ab_D_kLyQdRW7rkLjhHX-29" value="&lt;b&gt;training2&lt;/b&gt;&lt;br&gt;IP: 192.168.1.4" style="text;html=1;strokeColor=none;fillColor=#FFFFFF;align=center;verticalAlign=middle;whiteSpace=wrap;rounded=0;" vertex="1" parent="1">
          <mxGeometry x="-100" y="454" width="110" height="84" as="geometry" />
        </mxCell>
        <mxCell id="ab_D_kLyQdRW7rkLjhHX-30" value="&lt;b&gt;192.168.1.0/24&lt;br&gt;&lt;/b&gt;" style="text;html=1;strokeColor=none;fillColor=#FFFFFF;align=center;verticalAlign=middle;whiteSpace=wrap;rounded=0;" vertex="1" parent="1">
          <mxGeometry x="-30" y="154" width="100" height="42" as="geometry" />
        </mxCell>
        <mxCell id="ab_D_kLyQdRW7rkLjhHX-31" value="&lt;b&gt;192.168.2.0/24&lt;br&gt;&lt;/b&gt;" style="text;html=1;strokeColor=none;fillColor=#FFFFFF;align=center;verticalAlign=middle;whiteSpace=wrap;rounded=0;" vertex="1" parent="1">
          <mxGeometry x="570" y="231" width="100" height="42" as="geometry" />
        </mxCell>
        <mxCell id="ab_D_kLyQdRW7rkLjhHX-32" value="192.168.2.2" style="text;html=1;strokeColor=none;fillColor=#FFFFFF;align=center;verticalAlign=middle;whiteSpace=wrap;rounded=0;" vertex="1" parent="1">
          <mxGeometry x="510" y="350" width="100" height="42" as="geometry" />
        </mxCell>
        <mxCell id="ab_D_kLyQdRW7rkLjhHX-33" value="192.168.2.3" style="text;html=1;strokeColor=none;fillColor=#FFFFFF;align=center;verticalAlign=middle;whiteSpace=wrap;rounded=0;" vertex="1" parent="1">
          <mxGeometry x="640" y="349" width="100" height="42" as="geometry" />
        </mxCell>
        <mxCell id="ab_D_kLyQdRW7rkLjhHX-34" style="edgeStyle=orthogonalEdgeStyle;rounded=0;orthogonalLoop=1;jettySize=auto;html=1;entryX=0.007;entryY=0.4;entryDx=0;entryDy=0;entryPerimeter=0;" edge="1" parent="1" source="ab_D_kLyQdRW7rkLjhHX-5" target="ab_D_kLyQdRW7rkLjhHX-4">
          <mxGeometry relative="1" as="geometry" />
        </mxCell>
        <mxCell id="ab_D_kLyQdRW7rkLjhHX-37" value="192.168.1.1" style="text;html=1;strokeColor=none;fillColor=#00CC00;align=center;verticalAlign=middle;whiteSpace=wrap;rounded=0;" vertex="1" parent="1">
          <mxGeometry x="250" y="278" width="100" height="42" as="geometry" />
        </mxCell>
        <mxCell id="ab_D_kLyQdRW7rkLjhHX-38" value="192.168.2.1" style="text;html=1;strokeColor=none;fillColor=#CDA2BE;align=center;verticalAlign=middle;whiteSpace=wrap;rounded=0;" vertex="1" parent="1">
          <mxGeometry x="388" y="375" width="100" height="42" as="geometry" />
        </mxCell>
        <mxCell id="ab_D_kLyQdRW7rkLjhHX-42" value="" style="edgeStyle=orthogonalEdgeStyle;rounded=0;orthogonalLoop=1;jettySize=auto;html=1;" edge="1" parent="1" source="ab_D_kLyQdRW7rkLjhHX-39" target="ab_D_kLyQdRW7rkLjhHX-31">
          <mxGeometry relative="1" as="geometry" />
        </mxCell>
        <mxCell id="ab_D_kLyQdRW7rkLjhHX-39" value="&lt;b&gt;Routing Server/Firewall&lt;/b&gt;&lt;br&gt;192.168.2.4&lt;br&gt;172.16.0.1" style="text;html=1;strokeColor=none;fillColor=#FFFFFF;align=center;verticalAlign=middle;whiteSpace=wrap;rounded=0;" vertex="1" parent="1">
          <mxGeometry x="562.5" y="119" width="125" height="80" as="geometry" />
        </mxCell>
        <mxCell id="ab_D_kLyQdRW7rkLjhHX-40" value="&lt;b&gt;172.16.0.50&lt;br&gt;&lt;/b&gt;" style="text;html=1;strokeColor=none;fillColor=#FFFFFF;align=center;verticalAlign=middle;whiteSpace=wrap;rounded=0;" vertex="1" parent="1">
          <mxGeometry x="580.01" y="-220" width="100" height="42" as="geometry" />
        </mxCell>
        <mxCell id="ab_D_kLyQdRW7rkLjhHX-43" value="192.168.2.4" style="text;html=1;strokeColor=none;fillColor=#CDA2BE;align=center;verticalAlign=middle;whiteSpace=wrap;rounded=0;" vertex="1" parent="1">
          <mxGeometry x="770" y="378" width="100" height="42" as="geometry" />
        </mxCell>
        <mxCell id="ab_D_kLyQdRW7rkLjhHX-44" value="10.3.1.1" style="text;html=1;strokeColor=none;fillColor=#FF6666;align=center;verticalAlign=middle;whiteSpace=wrap;rounded=0;" vertex="1" parent="1">
          <mxGeometry x="910" y="273" width="100" height="42" as="geometry" />
        </mxCell>
        <mxCell id="ab_D_kLyQdRW7rkLjhHX-47" value="&lt;b&gt;172.16.0.0/24&lt;br&gt;&lt;/b&gt;" style="text;html=1;strokeColor=none;fillColor=#FFFFFF;align=center;verticalAlign=middle;whiteSpace=wrap;rounded=0;" vertex="1" parent="1">
          <mxGeometry x="580" y="-380" width="100" height="42" as="geometry" />
        </mxCell>
        <mxCell id="ab_D_kLyQdRW7rkLjhHX-49" value="&lt;b&gt;10.3.1.0/29&lt;br&gt;&lt;/b&gt;" style="text;html=1;strokeColor=none;fillColor=#FFFFFF;align=center;verticalAlign=middle;whiteSpace=wrap;rounded=0;" vertex="1" parent="1">
          <mxGeometry x="1100.01" y="221" width="100" height="42" as="geometry" />
        </mxCell>
        <mxCell id="ab_D_kLyQdRW7rkLjhHX-50" value="10.3.1.4" style="text;html=1;strokeColor=none;fillColor=#FFFFFF;align=center;verticalAlign=middle;whiteSpace=wrap;rounded=0;" vertex="1" parent="1">
          <mxGeometry x="1100.01" y="360" width="100" height="42" as="geometry" />
        </mxCell>
        <mxCell id="ab_D_kLyQdRW7rkLjhHX-54" value="10.3.1.6" style="text;html=1;strokeColor=none;fillColor=#FF6666;align=center;verticalAlign=middle;whiteSpace=wrap;rounded=0;" vertex="1" parent="1">
          <mxGeometry x="1330" y="308" width="100" height="42" as="geometry" />
        </mxCell>
        <mxCell id="ab_D_kLyQdRW7rkLjhHX-55" value="10.3.1.9" style="text;html=1;strokeColor=none;fillColor=#C3ABD0;align=center;verticalAlign=middle;whiteSpace=wrap;rounded=0;" vertex="1" parent="1">
          <mxGeometry x="1540" y="370" width="100" height="42" as="geometry" />
        </mxCell>
        <mxCell id="ab_D_kLyQdRW7rkLjhHX-56" value="172.16.10.1" style="text;html=1;strokeColor=none;fillColor=#00CCCC;align=center;verticalAlign=middle;whiteSpace=wrap;rounded=0;rotation=90;" vertex="1" parent="1">
          <mxGeometry x="1370" y="438" width="100" height="42" as="geometry" />
        </mxCell>
        <mxCell id="ab_D_kLyQdRW7rkLjhHX-58" value="&lt;b&gt;172.16.10.0/24&lt;br&gt;&lt;/b&gt;" style="text;html=1;strokeColor=none;fillColor=#FFFFFF;align=center;verticalAlign=middle;whiteSpace=wrap;rounded=0;" vertex="1" parent="1">
          <mxGeometry x="1415.82" y="580" width="100" height="42" as="geometry" />
        </mxCell>
        <mxCell id="ab_D_kLyQdRW7rkLjhHX-60" value="172.16.10.100" style="text;html=1;strokeColor=none;fillColor=#FFFFFF;align=center;verticalAlign=middle;whiteSpace=wrap;rounded=0;" vertex="1" parent="1">
          <mxGeometry x="1406.9099999999999" y="710" width="124.18" height="80" as="geometry" />
        </mxCell>
        <mxCell id="ab_D_kLyQdRW7rkLjhHX-61" value="&lt;b&gt;10.3.1.8/29&lt;br&gt;&lt;/b&gt;" style="text;html=1;strokeColor=none;fillColor=#FFFFFF;align=center;verticalAlign=middle;whiteSpace=wrap;rounded=0;" vertex="1" parent="1">
          <mxGeometry x="1810.82" y="229" width="100" height="42" as="geometry" />
        </mxCell>
        <mxCell id="ab_D_kLyQdRW7rkLjhHX-62" value="10.3.1.10" style="text;html=1;strokeColor=none;fillColor=#FFFFFF;align=center;verticalAlign=middle;whiteSpace=wrap;rounded=0;" vertex="1" parent="1">
          <mxGeometry x="1750" y="348" width="100" height="42" as="geometry" />
        </mxCell>
        <mxCell id="ab_D_kLyQdRW7rkLjhHX-63" value="10.3.1.11" style="text;html=1;strokeColor=none;fillColor=#FFFFFF;align=center;verticalAlign=middle;whiteSpace=wrap;rounded=0;" vertex="1" parent="1">
          <mxGeometry x="1890" y="348" width="100" height="42" as="geometry" />
        </mxCell>
        <mxCell id="ab_D_kLyQdRW7rkLjhHX-64" value="Routing Table:&lt;br&gt;192.168.1.0/24 via 192.168.1.1&lt;br&gt;192.168.2.0/24 via 192.168.2.1" style="text;html=1;strokeColor=#000000;fillColor=#FFFFFF;align=center;verticalAlign=middle;whiteSpace=wrap;rounded=0;" vertex="1" parent="1">
          <mxGeometry x="130" y="710" width="200" height="230" as="geometry" />
        </mxCell>
        <mxCell id="ab_D_kLyQdRW7rkLjhHX-68" value="Routing Table:&lt;br&gt;192.168.2.0/24 via 192.168.2.4&lt;br&gt;10.3.1.0/29 via 10.3.1.1" style="text;html=1;strokeColor=#000000;fillColor=#FFFFFF;align=center;verticalAlign=middle;whiteSpace=wrap;rounded=0;" vertex="1" parent="1">
          <mxGeometry x="710" y="700" width="200" height="230" as="geometry" />
        </mxCell>
        <mxCell id="ab_D_kLyQdRW7rkLjhHX-70" value="Routing Table:&lt;br&gt;10.3.1.0/29 via 10.3.1.6&lt;br&gt;10.3.1.8/29 via 10.3.1.9&lt;br&gt;172.16.10.0/24 via 172.16.10.1" style="text;html=1;strokeColor=#000000;fillColor=#FFFFFF;align=center;verticalAlign=middle;whiteSpace=wrap;rounded=0;" vertex="1" parent="1">
          <mxGeometry x="1260" y="-160" width="200" height="230" as="geometry" />
        </mxCell>
      </root>
    </mxGraphModel>
  </diagram>
</mxfile>
